0
SECTION
2
HEADER
9
$INSUNITS
70
4
0
ENDSEC
0
SECTION
2
ENTITIES
0
LWPOLYLINE
8
BOARD_OUTLINE
90
4
70
1
10
0
20
0
10
170
20
0
10
170
20
50
10
0
20
50
0
LWPOLYLINE
8
HEATER_ZONE
90
4
70
1
10
15
20
10
10
55
20
10
10
55
20
40
10
15
20
40
0
LWPOLYLINE
8
HEATER_ZONE
90
4
70
1
10
65
20
10
10
105
20
10
10
105
20
40
10
65
20
40
0
LWPOLYLINE
8
HEATER_ZONE
90
4
70
1
10
115
20
10
10
155
20
10
10
155
20
40
10
115
20
40
0
CIRCLE
8
TAB_IN
10
7
20
25
40
3.5
0
CIRCLE
8
TAB_OUT
10
163
20
25
40
3.5
0
LWPOLYLINE
8
TITLEBLOCK
90
4
70
1
10
120
20
1
10
168
20
1
10
168
20
8
10
120
20
8
0
LWPOLYLINE
8
DIMS
90
2
70
0
10
0
20
55
10
170
20
55
0
ENDSEC
0
EOF
